<svg width="196" height="56" viewBox="0 0 196 56" fill="none" xmlns="http://www.w3.org/2000/svg">
<rect x="-0.000244141" y="-0.00012207" width="196" height="56" rx="8" fill="url(#paint0_linear_28_498)"/>
<rect x="1.04976" y="1.04988" width="193.9" height="53.9" rx="6.95" stroke="white" stroke-opacity="0.15" stroke-width="2.1"/>
<g filter="url(#filter0_d_28_498)">
<path d="M44.389 20.8054L24.2891 42.6027H16.9167C16.4048 42.6027 15.9952 42.0939 16.0976 41.5851L21.0125 10.6497C21.1149 9.93733 21.7292 9.42853 22.446 9.42853H34.9381C43.5392 9.73381 45.8942 14.1095 44.3583 20.8258L44.389 20.8054Z" fill="#0045D9"/>
<path d="M44.7167 18.7906C47.7885 20.4188 48.5052 23.4717 47.4813 27.5421C46.1502 33.546 42.1568 36.0901 36.3204 36.1918L34.6821 36.2936C34.0677 36.2936 33.6581 36.7006 33.5557 37.3112L32.2246 45.3503C32.1222 46.0627 31.5078 46.5715 30.7911 46.5715H24.6474C24.1355 46.5715 23.7259 46.0627 23.8283 45.5539L26.081 31.002C26.1834 30.4932 44.7167 18.7906 44.7167 18.7906Z" fill="#00A4EE"/>
<path d="M25.9581 31.7142L28.006 18.7905C28.0732 18.4844 28.24 18.2089 28.4806 18.0066C28.7213 17.8042 29.0223 17.6863 29.3371 17.6711H39.1669C41.522 17.6711 43.2627 18.0782 44.6962 18.7905C44.1842 23.268 42.034 30.4931 31.5898 30.6966H27.0845C26.5725 30.6966 26.0605 31.1036 25.9581 31.7142Z" fill="#002788"/>
</g>
<g filter="url(#filter1_d_28_498)">
<path d="M67.6248 15.9203C67.5641 15.3825 67.3141 14.9658 66.8748 14.6703C66.4354 14.3711 65.8823 14.2215 65.2157 14.2215C64.7384 14.2215 64.3255 14.2972 63.977 14.4487C63.6285 14.5965 63.3577 14.801 63.1645 15.0624C62.9751 15.32 62.8804 15.6135 62.8804 15.9431C62.8804 16.2196 62.9448 16.4582 63.0736 16.659C63.2062 16.8597 63.3785 17.0283 63.5907 17.1646C63.8066 17.2972 64.0376 17.409 64.2838 17.4999C64.5301 17.587 64.7668 17.659 64.9941 17.7158L66.1304 18.0112C66.5016 18.1021 66.8823 18.2253 67.2725 18.3806C67.6626 18.5359 68.0244 18.7404 68.3577 18.9942C68.691 19.248 68.96 19.5624 69.1645 19.9374C69.3729 20.3124 69.477 20.7612 69.477 21.284C69.477 21.9431 69.3066 22.5283 68.9657 23.0396C68.6285 23.551 68.138 23.9544 67.4941 24.2499C66.8539 24.5453 66.0793 24.6931 65.1702 24.6931C64.299 24.6931 63.5452 24.5548 62.9088 24.2783C62.2725 24.0018 61.7744 23.6097 61.4145 23.1021C61.0547 22.5908 60.8558 21.9847 60.8179 21.284H62.5793C62.6134 21.7044 62.7498 22.0548 62.9884 22.3351C63.2308 22.6116 63.5395 22.8181 63.9145 22.9544C64.2933 23.087 64.7081 23.1533 65.1588 23.1533C65.6551 23.1533 66.0963 23.0756 66.4827 22.9203C66.8729 22.7612 67.1797 22.5415 67.4032 22.2612C67.6266 21.9771 67.7384 21.6457 67.7384 21.2669C67.7384 20.9222 67.6399 20.64 67.4429 20.4203C67.2498 20.2006 66.9865 20.0188 66.6532 19.8749C66.3236 19.7309 65.9505 19.604 65.5338 19.4942L64.1588 19.1192C63.227 18.8654 62.4884 18.4923 61.9429 17.9999C61.4013 17.5075 61.1304 16.8559 61.1304 16.0453C61.1304 15.3749 61.3123 14.7896 61.6759 14.2896C62.0395 13.7896 62.532 13.4014 63.1532 13.1249C63.7744 12.8446 64.4751 12.7044 65.2554 12.7044C66.0433 12.7044 66.7384 12.8427 67.3407 13.1192C67.9467 13.3957 68.424 13.7764 68.7725 14.2612C69.121 14.7423 69.3028 15.2953 69.3179 15.9203H67.6248ZM76.9671 20.8806V15.7726H78.6716V24.4999H77.0012V22.9885H76.9103C76.7095 23.4544 76.3875 23.8427 75.9444 24.1533C75.505 24.4601 74.9576 24.6135 74.3023 24.6135C73.7417 24.6135 73.2455 24.4904 72.8137 24.2442C72.3856 23.9942 72.0485 23.6249 71.8023 23.1362C71.5599 22.6476 71.4387 22.0434 71.4387 21.3237V15.7726H73.1375V21.1192C73.1375 21.7139 73.3023 22.1874 73.6319 22.5396C73.9614 22.8919 74.3894 23.0681 74.9159 23.0681C75.2341 23.0681 75.5504 22.9885 75.8648 22.8294C76.183 22.6703 76.4462 22.4298 76.6546 22.1078C76.8667 21.7859 76.9709 21.3768 76.9671 20.8806ZM80.9543 27.7726V15.7726H82.6134V17.1874H82.7554C82.8539 17.0056 82.996 16.7953 83.1816 16.5567C83.3672 16.3181 83.6247 16.1097 83.9543 15.9317C84.2838 15.7499 84.7194 15.659 85.2611 15.659C85.9657 15.659 86.5944 15.837 87.1475 16.1931C87.7005 16.5491 88.1342 17.0624 88.4486 17.7328C88.7668 18.4033 88.9259 19.2101 88.9259 20.1533C88.9259 21.0965 88.7687 21.9052 88.4543 22.5794C88.1399 23.2499 87.7081 23.7669 87.1588 24.1306C86.6096 24.4904 85.9827 24.6703 85.2782 24.6703C84.7479 24.6703 84.3141 24.5813 83.977 24.4033C83.6437 24.2253 83.3823 24.0169 83.1929 23.7783C83.0035 23.5396 82.8577 23.3275 82.7554 23.1419H82.6532V27.7726H80.9543ZM82.6191 20.1362C82.6191 20.7499 82.7081 21.2878 82.8861 21.7499C83.0641 22.212 83.3217 22.5737 83.6588 22.8351C83.996 23.0927 84.4088 23.2215 84.8975 23.2215C85.4051 23.2215 85.8293 23.087 86.1702 22.8181C86.5111 22.5453 86.7687 22.176 86.9429 21.7101C87.121 21.2442 87.21 20.7196 87.21 20.1362C87.21 19.5605 87.1229 19.0434 86.9486 18.5851C86.7782 18.1268 86.5206 17.765 86.1759 17.4999C85.835 17.2347 85.4088 17.1021 84.8975 17.1021C84.4051 17.1021 83.9884 17.229 83.6475 17.4828C83.3104 17.7366 83.0547 18.0908 82.8804 18.5453C82.7062 18.9999 82.6191 19.5302 82.6191 20.1362ZM90.8293 27.7726V15.7726H92.4884V17.1874H92.6304C92.7289 17.0056 92.871 16.7953 93.0566 16.5567C93.2422 16.3181 93.4997 16.1097 93.8293 15.9317C94.1588 15.7499 94.5944 15.659 95.1361 15.659C95.8407 15.659 96.4694 15.837 97.0225 16.1931C97.5755 16.5491 98.0092 17.0624 98.3236 17.7328C98.6418 18.4033 98.8009 19.2101 98.8009 20.1533C98.8009 21.0965 98.6437 21.9052 98.3293 22.5794C98.0149 23.2499 97.5831 23.7669 97.0338 24.1306C96.4846 24.4904 95.8577 24.6703 95.1532 24.6703C94.6229 24.6703 94.1891 24.5813 93.852 24.4033C93.5187 24.2253 93.2573 24.0169 93.0679 23.7783C92.8785 23.5396 92.7327 23.3275 92.6304 23.1419H92.5282V27.7726H90.8293ZM92.4941 20.1362C92.4941 20.7499 92.5831 21.2878 92.7611 21.7499C92.9391 22.212 93.1967 22.5737 93.5338 22.8351C93.871 23.0927 94.2838 23.2215 94.7725 23.2215C95.28 23.2215 95.7043 23.087 96.0452 22.8181C96.3861 22.5453 96.6437 22.176 96.8179 21.7101C96.996 21.2442 97.085 20.7196 97.085 20.1362C97.085 19.5605 96.9979 19.0434 96.8236 18.5851C96.6532 18.1268 96.3956 17.765 96.0509 17.4999C95.71 17.2347 95.2838 17.1021 94.7725 17.1021C94.28 17.1021 93.8634 17.229 93.5225 17.4828C93.1854 17.7366 92.9297 18.0908 92.7554 18.5453C92.5812 18.9999 92.4941 19.5302 92.4941 20.1362ZM104.38 24.676C103.562 24.676 102.848 24.4885 102.238 24.1135C101.629 23.7385 101.155 23.2139 100.818 22.5396C100.481 21.8654 100.312 21.0775 100.312 20.176C100.312 19.2707 100.481 18.479 100.818 17.801C101.155 17.123 101.629 16.5965 102.238 16.2215C102.848 15.8465 103.562 15.659 104.38 15.659C105.199 15.659 105.913 15.8465 106.522 16.2215C107.132 16.5965 107.606 17.123 107.943 17.801C108.28 18.479 108.449 19.2707 108.449 20.176C108.449 21.0775 108.28 21.8654 107.943 22.5396C107.606 23.2139 107.132 23.7385 106.522 24.1135C105.913 24.4885 105.199 24.676 104.38 24.676ZM104.386 23.2499C104.916 23.2499 105.356 23.1097 105.704 22.8294C106.053 22.5491 106.31 22.176 106.477 21.7101C106.647 21.2442 106.733 20.7309 106.733 20.1703C106.733 19.6135 106.647 19.1021 106.477 18.6362C106.31 18.1665 106.053 17.7896 105.704 17.5056C105.356 17.2215 104.916 17.0794 104.386 17.0794C103.852 17.0794 103.409 17.2215 103.057 17.5056C102.708 17.7896 102.449 18.1665 102.278 18.6362C102.111 19.1021 102.028 19.6135 102.028 20.1703C102.028 20.7309 102.111 21.2442 102.278 21.7101C102.449 22.176 102.708 22.5491 103.057 22.8294C103.409 23.1097 103.852 23.2499 104.386 23.2499ZM110.345 24.4999V15.7726H111.987V17.159H112.078C112.237 16.6893 112.517 16.32 112.919 16.051C113.324 15.7783 113.782 15.6419 114.294 15.6419C114.4 15.6419 114.525 15.6457 114.669 15.6533C114.817 15.6609 114.932 15.6703 115.015 15.6817V17.3067C114.947 17.2878 114.826 17.2669 114.652 17.2442C114.477 17.2177 114.303 17.2044 114.129 17.2044C113.727 17.2044 113.37 17.2896 113.055 17.4601C112.745 17.6268 112.498 17.8597 112.317 18.159C112.135 18.4544 112.044 18.7915 112.044 19.1703V24.4999H110.345ZM121.075 15.7726V17.1362H116.308V15.7726H121.075ZM117.586 13.6817H119.285V21.9374C119.285 22.2669 119.334 22.515 119.433 22.6817C119.531 22.8446 119.658 22.9563 119.814 23.0169C119.973 23.0737 120.145 23.1021 120.331 23.1021C120.467 23.1021 120.586 23.0927 120.689 23.0737C120.791 23.0548 120.87 23.0396 120.927 23.0283L121.234 24.4317C121.136 24.4696 120.995 24.5074 120.814 24.5453C120.632 24.587 120.405 24.6097 120.132 24.6135C119.685 24.6211 119.268 24.5415 118.882 24.3749C118.495 24.2082 118.183 23.9506 117.944 23.6021C117.706 23.2537 117.586 22.8162 117.586 22.2896V13.6817ZM137.433 18.6817C137.433 19.9241 137.206 20.9923 136.751 21.8862C136.297 22.7764 135.674 23.462 134.882 23.9431C134.094 24.4203 133.198 24.659 132.194 24.659C131.187 24.659 130.287 24.4203 129.495 23.9431C128.708 23.462 128.086 22.7745 127.632 21.8806C127.177 20.9866 126.95 19.9203 126.95 18.6817C126.95 17.4393 127.177 16.373 127.632 15.4828C128.086 14.5889 128.708 13.9033 129.495 13.426C130.287 12.945 131.187 12.7044 132.194 12.7044C133.198 12.7044 134.094 12.945 134.882 13.426C135.674 13.9033 136.297 14.5889 136.751 15.4828C137.206 16.373 137.433 17.4393 137.433 18.6817ZM135.694 18.6817C135.694 17.7347 135.541 16.9374 135.234 16.2896C134.931 15.6381 134.514 15.1457 133.984 14.8124C133.458 14.4753 132.861 14.3067 132.194 14.3067C131.524 14.3067 130.925 14.4753 130.399 14.8124C129.872 15.1457 129.456 15.6381 129.149 16.2896C128.846 16.9374 128.694 17.7347 128.694 18.6817C128.694 19.6287 128.846 20.4279 129.149 21.0794C129.456 21.7271 129.872 22.2196 130.399 22.5567C130.925 22.89 131.524 23.0567 132.194 23.0567C132.861 23.0567 133.458 22.89 133.984 22.5567C134.514 22.2196 134.931 21.7271 135.234 21.0794C135.541 20.4279 135.694 19.6287 135.694 18.6817ZM145.968 15.9203C145.908 15.3825 145.658 14.9658 145.218 14.6703C144.779 14.3711 144.226 14.2215 143.559 14.2215C143.082 14.2215 142.669 14.2972 142.321 14.4487C141.972 14.5965 141.701 14.801 141.508 15.0624C141.319 15.32 141.224 15.6135 141.224 15.9431C141.224 16.2196 141.289 16.4582 141.417 16.659C141.55 16.8597 141.722 17.0283 141.934 17.1646C142.15 17.2972 142.381 17.409 142.628 17.4999C142.874 17.587 143.111 17.659 143.338 17.7158L144.474 18.0112C144.845 18.1021 145.226 18.2253 145.616 18.3806C146.006 18.5359 146.368 18.7404 146.701 18.9942C147.035 19.248 147.304 19.5624 147.508 19.9374C147.717 20.3124 147.821 20.7612 147.821 21.284C147.821 21.9431 147.65 22.5283 147.309 23.0396C146.972 23.551 146.482 23.9544 145.838 24.2499C145.198 24.5453 144.423 24.6931 143.514 24.6931C142.643 24.6931 141.889 24.5548 141.253 24.2783C140.616 24.0018 140.118 23.6097 139.758 23.1021C139.398 22.5908 139.2 21.9847 139.162 21.284H140.923C140.957 21.7044 141.093 22.0548 141.332 22.3351C141.575 22.6116 141.883 22.8181 142.258 22.9544C142.637 23.087 143.052 23.1533 143.503 23.1533C143.999 23.1533 144.44 23.0756 144.826 22.9203C145.217 22.7612 145.523 22.5415 145.747 22.2612C145.97 21.9771 146.082 21.6457 146.082 21.2669C146.082 20.9222 145.984 20.64 145.787 20.4203C145.593 20.2006 145.33 20.0188 144.997 19.8749C144.667 19.7309 144.294 19.604 143.878 19.4942L142.503 19.1192C141.571 18.8654 140.832 18.4923 140.287 17.9999C139.745 17.5075 139.474 16.8559 139.474 16.0453C139.474 15.3749 139.656 14.7896 140.02 14.2896C140.383 13.7896 140.876 13.4014 141.497 13.1249C142.118 12.8446 142.819 12.7044 143.599 12.7044C144.387 12.7044 145.082 12.8427 145.684 13.1192C146.29 13.3957 146.768 13.7764 147.116 14.2612C147.465 14.7423 147.647 15.2953 147.662 15.9203H145.968ZM159.584 16.6476H157.811C157.743 16.2688 157.616 15.9355 157.43 15.6476C157.245 15.3597 157.017 15.1154 156.748 14.9146C156.479 14.7139 156.178 14.5624 155.845 14.4601C155.515 14.3578 155.165 14.3067 154.794 14.3067C154.123 14.3067 153.523 14.4753 152.993 14.8124C152.466 15.1495 152.049 15.6438 151.743 16.2953C151.44 16.9468 151.288 17.7423 151.288 18.6817C151.288 19.6287 151.44 20.4279 151.743 21.0794C152.049 21.7309 152.468 22.2234 152.998 22.5567C153.529 22.89 154.125 23.0567 154.788 23.0567C155.156 23.0567 155.504 23.0074 155.834 22.909C156.167 22.8067 156.468 22.6571 156.737 22.4601C157.006 22.2631 157.233 22.0226 157.419 21.7385C157.608 21.4506 157.739 21.1211 157.811 20.7499L159.584 20.7556C159.489 21.3275 159.305 21.854 159.032 22.3351C158.763 22.8124 158.417 23.2253 157.993 23.5737C157.572 23.9184 157.091 24.1855 156.549 24.3749C156.008 24.5643 155.417 24.659 154.777 24.659C153.769 24.659 152.871 24.4203 152.084 23.9431C151.296 23.462 150.674 22.7745 150.22 21.8806C149.769 20.9866 149.544 19.9203 149.544 18.6817C149.544 17.4393 149.771 16.373 150.226 15.4828C150.68 14.5889 151.301 13.9033 152.089 13.426C152.877 12.945 153.773 12.7044 154.777 12.7044C155.394 12.7044 155.97 12.7934 156.504 12.9715C157.042 13.1457 157.525 13.4033 157.953 13.7442C158.381 14.0813 158.735 14.4942 159.015 14.9828C159.296 15.4677 159.485 16.0226 159.584 16.6476ZM169.459 24.676C168.64 24.676 167.926 24.4885 167.316 24.1135C166.707 23.7385 166.233 23.2139 165.896 22.5396C165.559 21.8654 165.39 21.0775 165.39 20.176C165.39 19.2707 165.559 18.479 165.896 17.801C166.233 17.123 166.707 16.5965 167.316 16.2215C167.926 15.8465 168.64 15.659 169.459 15.659C170.277 15.659 170.991 15.8465 171.601 16.2215C172.21 16.5965 172.684 17.123 173.021 17.801C173.358 18.479 173.527 19.2707 173.527 20.176C173.527 21.0775 173.358 21.8654 173.021 22.5396C172.684 23.2139 172.21 23.7385 171.601 24.1135C170.991 24.4885 170.277 24.676 169.459 24.676ZM169.464 23.2499C169.995 23.2499 170.434 23.1097 170.782 22.8294C171.131 22.5491 171.388 22.176 171.555 21.7101C171.726 21.2442 171.811 20.7309 171.811 20.1703C171.811 19.6135 171.726 19.1021 171.555 18.6362C171.388 18.1665 171.131 17.7896 170.782 17.5056C170.434 17.2215 169.995 17.0794 169.464 17.0794C168.93 17.0794 168.487 17.2215 168.135 17.5056C167.786 17.7896 167.527 18.1665 167.356 18.6362C167.19 19.1021 167.106 19.6135 167.106 20.1703C167.106 20.7309 167.19 21.2442 167.356 21.7101C167.527 22.176 167.786 22.5491 168.135 22.8294C168.487 23.1097 168.93 23.2499 169.464 23.2499ZM177.122 19.3181V24.4999H175.423V15.7726H177.054V17.1931H177.162C177.362 16.7309 177.677 16.3597 178.105 16.0794C178.537 15.7991 179.08 15.659 179.736 15.659C180.33 15.659 180.851 15.784 181.298 16.034C181.745 16.2802 182.092 16.6476 182.338 17.1362C182.584 17.6249 182.707 18.229 182.707 18.9487V24.4999H181.008V19.1533C181.008 18.5207 180.843 18.0264 180.514 17.6703C180.184 17.3105 179.732 17.1306 179.156 17.1306C178.762 17.1306 178.412 17.2158 178.105 17.3862C177.802 17.5567 177.561 17.8067 177.383 18.1362C177.209 18.462 177.122 18.8559 177.122 19.3181Z" fill="#E8E8E8"/>
<path d="M60.9355 43.4999V31.1362H66.0427C66.9684 31.1362 67.7673 31.3173 68.4394 31.6796C69.1155 32.0378 69.6367 32.5388 70.0029 33.1828C70.3692 33.8227 70.5523 34.5672 70.5523 35.4164C70.5523 36.2696 70.3652 37.0162 69.9909 37.6561C69.6206 38.292 69.0914 38.785 68.4032 39.1352C67.715 39.4853 66.898 39.6604 65.9522 39.6604H62.8009V37.306H65.3968C65.8475 37.306 66.2238 37.2275 66.5257 37.0705C66.8315 36.9136 67.063 36.6942 67.2199 36.4125C67.3769 36.1268 67.4554 35.7947 67.4554 35.4164C67.4554 35.0341 67.3769 34.7041 67.2199 34.4264C67.063 34.1446 66.8315 33.9273 66.5257 33.7744C66.2198 33.6214 65.8435 33.545 65.3968 33.545H63.9238V43.4999H60.9355ZM74.3073 43.6568C73.7157 43.6568 73.1904 43.5582 72.7316 43.361C72.2769 43.1598 71.9167 42.8579 71.651 42.4555C71.3894 42.049 71.2586 41.5399 71.2586 40.9281C71.2586 40.413 71.3492 39.9783 71.5303 39.6242C71.7114 39.27 71.9609 38.9822 72.2789 38.7609C72.5968 38.5395 72.9631 38.3725 73.3776 38.2598C73.7921 38.1431 74.2348 38.0646 74.7057 38.0244C75.2329 37.9761 75.6575 37.9258 75.9795 37.8735C76.3015 37.8171 76.5349 37.7386 76.6798 37.638C76.8287 37.5334 76.9032 37.3865 76.9032 37.1973V37.1671C76.9032 36.8572 76.7965 36.6178 76.5832 36.4487C76.3699 36.2797 76.0821 36.1952 75.7199 36.1952C75.3295 36.1952 75.0156 36.2797 74.7782 36.4487C74.5407 36.6178 74.3898 36.8512 74.3254 37.149L71.6027 37.0524C71.6832 36.489 71.8905 35.9859 72.2245 35.5432C72.5626 35.0965 73.0254 34.7463 73.613 34.4928C74.2047 34.2352 74.915 34.1064 75.7441 34.1064C76.3357 34.1064 76.881 34.1768 77.3801 34.3177C77.8791 34.4545 78.3138 34.6558 78.6841 34.9214C79.0543 35.183 79.3401 35.505 79.5413 35.8873C79.7466 36.2696 79.8492 36.7063 79.8492 37.1973V43.4999H77.0722V42.208H76.9998C76.8347 42.5219 76.6234 42.7875 76.3659 43.0048C76.1123 43.2222 75.8125 43.3852 75.4664 43.4938C75.1243 43.6025 74.7379 43.6568 74.3073 43.6568ZM75.2189 41.725C75.5368 41.725 75.8225 41.6606 76.0761 41.5318C76.3337 41.403 76.5389 41.226 76.6919 41.0006C76.8448 40.7712 76.9213 40.5056 76.9213 40.2037V39.3223C76.8368 39.3666 76.7341 39.4068 76.6134 39.4431C76.4967 39.4793 76.3679 39.5135 76.227 39.5457C76.0862 39.5779 75.9413 39.6061 75.7924 39.6302C75.6435 39.6543 75.5006 39.6765 75.3637 39.6966C75.086 39.7409 74.8486 39.8093 74.6514 39.9019C74.4582 39.9944 74.3093 40.1152 74.2047 40.2641C74.104 40.409 74.0537 40.582 74.0537 40.7833C74.0537 41.0891 74.1624 41.3226 74.3797 41.4835C74.6011 41.6445 74.8808 41.725 75.2189 41.725ZM83.1272 46.9771C82.7731 46.9771 82.439 46.949 82.1251 46.8926C81.8112 46.8403 81.5415 46.7699 81.3162 46.6813L81.9681 44.5382C82.2579 44.6348 82.5195 44.6912 82.7529 44.7073C82.9904 44.7234 83.1936 44.6851 83.3627 44.5926C83.5357 44.504 83.6685 44.345 83.7611 44.1156L83.8758 43.8379L80.5797 34.2271H83.6706L85.379 40.8436H85.4756L87.2082 34.2271H90.3172L86.8218 44.3873C86.6528 44.8944 86.4133 45.3411 86.1034 45.7275C85.7976 46.1179 85.4011 46.4238 84.9142 46.6451C84.4312 46.8665 83.8356 46.9771 83.1272 46.9771Z" fill="#0045D9"/>
<path d="M91.4491 43.4999V31.1362H96.5564C97.482 31.1362 98.2809 31.3173 98.953 31.6796C99.6292 32.0378 100.15 32.5388 100.517 33.1828C100.883 33.8227 101.066 34.5672 101.066 35.4164C101.066 36.2696 100.879 37.0162 100.505 37.6561C100.134 38.292 99.605 38.785 98.9168 39.1352C98.2286 39.4853 97.4116 39.6604 96.4658 39.6604H93.3146V37.306H95.9104C96.3612 37.306 96.7375 37.2275 97.0393 37.0705C97.3452 36.9136 97.5766 36.6942 97.7336 36.4125C97.8905 36.1268 97.969 35.7947 97.969 35.4164C97.969 35.0341 97.8905 34.7041 97.7336 34.4264C97.5766 34.1446 97.3452 33.9273 97.0393 33.7744C96.7335 33.6214 96.3572 33.545 95.9104 33.545H94.4374V43.4999H91.4491ZM104.821 43.6568C104.229 43.6568 103.704 43.5582 103.245 43.361C102.791 43.1598 102.43 42.8579 102.165 42.4555C101.903 42.049 101.772 41.5399 101.772 40.9281C101.772 40.413 101.863 39.9783 102.044 39.6242C102.225 39.27 102.475 38.9822 102.793 38.7609C103.11 38.5395 103.477 38.3725 103.891 38.2598C104.306 38.1431 104.748 38.0646 105.219 38.0244C105.747 37.9761 106.171 37.9258 106.493 37.8735C106.815 37.8171 107.049 37.7386 107.193 37.638C107.342 37.5334 107.417 37.3865 107.417 37.1973V37.1671C107.417 36.8572 107.31 36.6178 107.097 36.4487C106.884 36.2797 106.596 36.1952 106.234 36.1952C105.843 36.1952 105.529 36.2797 105.292 36.4487C105.054 36.6178 104.903 36.8512 104.839 37.149L102.116 37.0524C102.197 36.489 102.404 35.9859 102.738 35.5432C103.076 35.0965 103.539 34.7463 104.127 34.4928C104.718 34.2352 105.429 34.1064 106.258 34.1064C106.849 34.1064 107.395 34.1768 107.894 34.3177C108.393 34.4545 108.827 34.6558 109.198 34.9214C109.568 35.183 109.854 35.505 110.055 35.8873C110.26 36.2696 110.363 36.7063 110.363 37.1973V43.4999H107.586V42.208H107.513C107.348 42.5219 107.137 42.7875 106.88 43.0048C106.626 43.2222 106.326 43.3852 105.98 43.4938C105.638 43.6025 105.252 43.6568 104.821 43.6568ZM105.733 41.725C106.05 41.725 106.336 41.6606 106.59 41.5318C106.847 41.403 107.053 41.226 107.206 41.0006C107.358 40.7712 107.435 40.5056 107.435 40.2037V39.3223C107.35 39.3666 107.248 39.4068 107.127 39.4431C107.01 39.4793 106.882 39.5135 106.741 39.5457C106.6 39.5779 106.455 39.6061 106.306 39.6302C106.157 39.6543 106.014 39.6765 105.877 39.6966C105.6 39.7409 105.362 39.8093 105.165 39.9019C104.972 39.9944 104.823 40.1152 104.718 40.2641C104.618 40.409 104.567 40.582 104.567 40.7833C104.567 41.0891 104.676 41.3226 104.893 41.4835C105.115 41.6445 105.394 41.725 105.733 41.725ZM115.12 31.1362V43.4999H112.168V31.1362H115.12Z" fill="#00A4EE"/>
</g>
<defs>
<filter id="filter0_d_28_498" x="6.28547" y="2.28559" width="51.4286" height="51.4286" filterUnits="userSpaceOnUse" color-interpolation-filters="sRGB">
<feFlood flood-opacity="0" result="BackgroundImageFix"/>
<feColorMatrix in="SourceAlpha" type="matrix" values="0 0 0 0 0 0 0 0 0 0 0 0 0 0 0 0 0 0 127 0" result="hardAlpha"/>
<feOffset/>
<feGaussianBlur stdDeviation="2.85714"/>
<feComposite in2="hardAlpha" operator="out"/>
<feColorMatrix type="matrix" values="0 0 0 0 0 0 0 0 0 0 0 0 0 0 0 0 0 0 0.25 0"/>
<feBlend mode="normal" in2="BackgroundImageFix" result="effect1_dropShadow_28_498"/>
<feBlend mode="normal" in="SourceGraphic" in2="effect1_dropShadow_28_498" result="shape"/>
</filter>
<filter id="filter1_d_28_498" x="54.3998" y="3.89988" width="135.2" height="48.6773" filterUnits="userSpaceOnUse" color-interpolation-filters="sRGB">
<feFlood flood-opacity="0" result="BackgroundImageFix"/>
<feColorMatrix in="SourceAlpha" type="matrix" values="0 0 0 0 0 0 0 0 0 0 0 0 0 0 0 0 0 0 127 0" result="hardAlpha"/>
<feOffset/>
<feGaussianBlur stdDeviation="2.8"/>
<feComposite in2="hardAlpha" operator="out"/>
<feColorMatrix type="matrix" values="0 0 0 0 0 0 0 0 0 0 0 0 0 0 0 0 0 0 0.25 0"/>
<feBlend mode="normal" in2="BackgroundImageFix" result="effect1_dropShadow_28_498"/>
<feBlend mode="normal" in="SourceGraphic" in2="effect1_dropShadow_28_498" result="shape"/>
</filter>
<linearGradient id="paint0_linear_28_498" x1="97.9997" y1="-0.00012207" x2="97.9997" y2="55.9999" gradientUnits="userSpaceOnUse">
<stop stop-color="#0E1B35"/>
<stop offset="1" stop-color="#0A1D25"/>
</linearGradient>
</defs>
</svg>
